<svg xmlns="http://www.w3.org/2000/svg" viewBox="76.51 -881.09 10250.09 893.09" role="img" aria-label="EGE KENT NAKLİYAT"><g transform="scale(1,-1)"><g fill="#F7F4EF"><path d="M76.5108642578125 0V687.021728515625H642.1627197265625V548.43505859375H252.99951171875V417.239013671875H593.0540771484375V282.2283935546875H252.99951171875V138.586669921875H648.673583984375V0Z" transform="translate(0 0)"/><path d="M388 -12Q222.3587646484375 -12 135.63592529296875 75.79888916015625Q48.9130859375 163.5977783203125 48.9130859375 343.5108642578125Q48.9130859375 462.978271484375 91.69024658203125 541.7337036132812Q134.4674072265625 620.4891357421875 215.77716064453125 659.7554321289062Q297.0869140625 699.021728515625 411.6846923828125 699.021728515625Q480.7498779296875 699.021728515625 541.5596313476562 683.2554321289062Q602.369384765625 667.4891357421875 648.912841796875 635.9674072265625Q695.456298828125 604.4456787109375 721.47802734375 556.9130859375Q747.499755859375 509.3804931640625 747.499755859375 445.3587646484375H574.1632080078125Q574.1632080078125 472.7392578125 561.7066650390625 494.40777587890625Q549.2501220703125 516.0762939453125 527.5816040039062 531.02197265625Q505.9130859375 545.9676513671875 477.76629638671875 553.4459228515625Q449.6195068359375 560.9241943359375 418.239013671875 560.9241943359375Q371.412841796875 560.9241943359375 335.78778076171875 548.4676513671875Q300.1627197265625 536.0111083984375 276.7496337890625 510.85345458984375Q253.3365478515625 485.69580078125 241.62457275390625 449.3587646484375Q229.91259765625 413.021728515625 229.91259765625 364.7498779296875V321.78271484375Q229.91259765625 256.6195068359375 250.10284423828125 213.04876708984375Q270.2930908203125 169.47802734375 311.173583984375 147.78778076171875Q352.0540771484375 126.0975341796875 412.369384765625 126.0975341796875Q459.108642578125 126.0975341796875 495.9456787109375 140.26605224609375Q532.78271484375 154.4345703125 554.4512329101562 181.52703857421875Q576.1197509765625 208.6195068359375 576.1197509765625 246.3587646484375V251.826171875H389.30419921875V376.173828125H747.499755859375V0H643.7716064453125L627.152099609375 71.9130859375Q596.6412353515625 43.95654296875 561.108642578125 25.22283935546875Q525.5760498046875 6.4891357421875 483.04345703125 -2.75543212890625Q440.5108642578125 -12 388 -12Z" transform="translate(648 0)"/><path d="M76.5108642578125 0V687.021728515625H642.1627197265625V548.43505859375H252.99951171875V417.239013671875H593.0540771484375V282.2283935546875H252.99951171875V138.586669921875H648.673583984375V0Z" transform="translate(1412 0)"/></g><g fill="#C0592A"><path d="M74.978271484375 0V687.021728515625H251.4669189453125V381.282470703125L525.325927734375 687.021728515625H743.0753173828125L486.78173828125 406.4674072265625L748.0753173828125 0H539.412841796875L364.5538330078125 286.34814453125L251.4669189453125 181.6634521484375V0Z" transform="translate(2330 0)"/><path d="M76.5108642578125 0V687.021728515625H642.1627197265625V548.43505859375H252.99951171875V417.239013671875H593.0540771484375V282.2283935546875H252.99951171875V138.586669921875H648.673583984375V0Z" transform="translate(3045 0)"/><path d="M74.978271484375 0V687.021728515625H231.673583984375L484.3153076171875 362.73828125Q491.3587646484375 354.69482421875 502.4456787109375 339.85247802734375Q513.5325927734375 325.0101318359375 524.3858032226562 310.15692138671875Q535.239013671875 295.3037109375 540.30419921875 286.238525390625L545.30419921875 287.26025390625Q544.7933349609375 308.412353515625 544.7933349609375 328.81988525390625Q544.7933349609375 349.2274169921875 544.7933349609375 362.73828125V687.021728515625H708.6190185546875V0H552.9237060546875L285.99951171875 340.0550537109375Q273.4017333984375 356.1419677734375 262.13543701171875 373.131103515625Q250.869140625 390.1202392578125 243.2930908203125 401.2071533203125L238.2930908203125 400.1854248046875Q238.803955078125 384.1202392578125 238.803955078125 367.81048583984375Q238.803955078125 351.500732421875 238.803955078125 340.0550537109375V0Z" transform="translate(3693 0)"/><path d="M246.5543212890625 0V542.326416015625H23.978271484375V687.021728515625H645.5972900390625V542.326416015625H423.04296875V0Z" transform="translate(4427 0)"/></g><g fill="#F7F4EF"><path d="M74.978271484375 0V687.021728515625H231.673583984375L484.3153076171875 362.73828125Q491.3587646484375 354.69482421875 502.4456787109375 339.85247802734375Q513.5325927734375 325.0101318359375 524.3858032226562 310.15692138671875Q535.239013671875 295.3037109375 540.30419921875 286.238525390625L545.30419921875 287.26025390625Q544.7933349609375 308.412353515625 544.7933349609375 328.81988525390625Q544.7933349609375 349.2274169921875 544.7933349609375 362.73828125V687.021728515625H708.6190185546875V0H552.9237060546875L285.99951171875 340.0550537109375Q273.4017333984375 356.1419677734375 262.13543701171875 373.131103515625Q250.869140625 390.1202392578125 243.2930908203125 401.2071533203125L238.2930908203125 400.1854248046875Q238.803955078125 384.1202392578125 238.803955078125 367.81048583984375Q238.803955078125 351.500732421875 238.803955078125 340.0550537109375V0Z" transform="translate(5319 0)"/><path d="M7.5543212890625 0 266.3804931640625 687.021728515625H477.890869140625L737.2061767578125 0H548.69580078125L506.978271484375 120.9676513671875H230.2713623046875L188.5538330078125 0ZM273.82568359375 253.4456787109375H463.4456787109375L412.8367919921875 400.6199951171875Q408.8367919921875 411.6417236328125 403.59222412109375 427.90802001953125Q398.34765625 444.17431640625 392.8585205078125 462.92974853515625Q387.369384765625 481.6851806640625 381.8802490234375 500.42974853515625Q376.39111328125 519.17431640625 371.9019775390625 533.6634521484375H365.369384765625Q360.39111328125 514.6851806640625 352.912841796875 490.2177734375Q345.4345703125 465.7503662109375 337.9454345703125 441.98406982421875Q330.456298828125 418.2177734375 324.4345703125 400.6199951171875Z" transform="translate(6053 0)"/><path d="M74.978271484375 0V687.021728515625H251.4669189453125V381.282470703125L525.325927734375 687.021728515625H743.0753173828125L486.78173828125 406.4674072265625L748.0753173828125 0H539.412841796875L364.5538330078125 286.34814453125L251.4669189453125 181.6634521484375V0Z" transform="translate(6747 0)"/><path d="M74.978271484375 0V687.021728515625H251.4669189453125V145.1844482421875H600.064697265625V0Z" transform="translate(7462 0)"/><path d="M74.978271484375 0V687.021728515625H251.4669189453125V0ZM96.325927734375 751.3804931640625V881.0869140625H232.673583984375V751.3804931640625Z" transform="translate(8032 0)"/><path d="M277.065185546875 0V272.86962890625L8.4674072265625 687.021728515625H211.5972900390625L367.56494140625 428.1844482421875H372.0540771484375L527.04345703125 687.021728515625H719.6190185546875L453.5538330078125 272.86962890625V0Z" transform="translate(8308 0)"/><path d="M7.5543212890625 0 266.3804931640625 687.021728515625H477.890869140625L737.2061767578125 0H548.69580078125L506.978271484375 120.9676513671875H230.2713623046875L188.5538330078125 0ZM273.82568359375 253.4456787109375H463.4456787109375L412.8367919921875 400.6199951171875Q408.8367919921875 411.6417236328125 403.59222412109375 427.90802001953125Q398.34765625 444.17431640625 392.8585205078125 462.92974853515625Q387.369384765625 481.6851806640625 381.8802490234375 500.42974853515625Q376.39111328125 519.17431640625 371.9019775390625 533.6634521484375H365.369384765625Q360.39111328125 514.6851806640625 352.912841796875 490.2177734375Q345.4345703125 465.7503662109375 337.9454345703125 441.98406982421875Q330.456298828125 418.2177734375 324.4345703125 400.6199951171875Z" transform="translate(8987 0)"/><path d="M246.5543212890625 0V542.326416015625H23.978271484375V687.021728515625H645.5972900390625V542.326416015625H423.04296875V0Z" transform="translate(9681 0)"/></g></g></svg>